<?xml version="1.0" encoding="UTF-8" standalone="no"?>
<svg
   width="24"
   height="24"
   fill-rule="evenodd"
   clip-rule="evenodd"
   version="1.1"
   id="svg134"
   xmlns="http://www.w3.org/2000/svg"
   xmlns:svg="http://www.w3.org/2000/svg">
  <defs
     id="defs138" />
  <rect
     style="fill:#000000;stroke-linecap:round;stroke-miterlimit:1.5"
     id="rect467"
     width="24"
     height="24"
     x="0"
     y="0"
     ry="3.7554426" />
  <path
     d="m 12.745763,20.949153 h -1.491526 l -7.45e-4,-7.321899 -3.8898988,-2.836881 0.00597,-0.0082 -0.00373,-0.003 -0.4392542,0.603322 3.587865,2.608678 -0.0067,3.086712 C 7.1063051,16.420881 4.5423729,13.560136 4.5423729,10.135593 4.5423729,6.2255593 7.8841356,3.0508475 12,3.0508475 c 4.115864,0 7.457627,3.1747118 7.457627,7.0847455 0,3.424543 -2.562441,6.284543 -5.963864,6.942305 l -0.0075,-3.086712 3.587119,-2.608678 -0.438509,-0.603322 -7.46e-4,7.46e-4 0.0075,0.01044 -3.89661,2.841356 z m -7.46e-4,-10.448136 0.003,2.205966 0.743525,-0.542169 -0.0052,-1.303594 2.248475,-1.6354573 -0.439255,-0.6025763 -0.0037,0.00224 7.45e-4,7.458e-4 z M 11.253492,10.496542 9.0706441,8.8894237 8.7044746,8.6231864 8.2659661,9.2257627 10.513695,10.86122 l -0.0045,1.299865 0.743526,0.542169 z m 1.491525,-2.8338979 0.0022,1.9113898 0.743526,-0.5481356 -0.0037,-0.9851525 0.90461,-0.6406102 -0.431051,-0.6085424 v 7.458e-4 z m -1.491525,-0.00447 -1.214102,-0.8665763 -0.431051,0.6085424 0.90461,0.6406102 -0.0037,0.9814237 0.744272,0.5481356 z"
     id="path132"
     style="stroke-width:0.745763;fill:#ffffff" />
</svg>
